<mxfile host="Electron" modified="2023-04-24T22:13:11.738Z" agent="Mozilla/5.0 (Windows NT 10.0; Win64; x64) AppleWebKit/537.36 (KHTML, like Gecko) draw.io/21.1.2 Chrome/106.0.5249.199 Electron/21.4.3 Safari/537.36" etag="ebWFOVLN2CmKE-ALf1nL" version="21.1.2" type="device">
  <diagram name="Página-1" id="vdRWRzZhqt5BP-wejfQu">
    <mxGraphModel dx="2049" dy="1194" grid="1" gridSize="10" guides="1" tooltips="1" connect="1" arrows="1" fold="1" page="1" pageScale="1" pageWidth="827" pageHeight="1169" math="0" shadow="0">
      <root>
        <mxCell id="0" />
        <mxCell id="1" parent="0" />
        <mxCell id="bVzl48XAN6Z6IAqM6yS6-24" value="" style="ellipse;whiteSpace=wrap;html=1;aspect=fixed;" parent="1" vertex="1">
          <mxGeometry x="660" y="420" width="60" height="60" as="geometry" />
        </mxCell>
        <mxCell id="bVzl48XAN6Z6IAqM6yS6-25" value="" style="endArrow=classic;html=1;rounded=0;entryX=0;entryY=0.5;entryDx=0;entryDy=0;" parent="1" target="bVzl48XAN6Z6IAqM6yS6-24" edge="1">
          <mxGeometry width="50" height="50" relative="1" as="geometry">
            <mxPoint x="600" y="450" as="sourcePoint" />
            <mxPoint x="660" y="430" as="targetPoint" />
          </mxGeometry>
        </mxCell>
        <mxCell id="bVzl48XAN6Z6IAqM6yS6-28" value="&lt;div style=&quot;background-color:#ffffff;padding:0px 0px 0px 2px;&quot;&gt;&lt;div style=&quot;color: rgb(0, 0, 0); background-color: rgb(255, 255, 255); font-family: &amp;quot;Courier New&amp;quot;; font-size: 10pt;&quot;&gt;&lt;p style=&quot;background-color:#e8f2fe;margin:0;&quot;&gt;&lt;span style=&quot;color:#000000;&quot;&gt;&lt;/span&gt;&lt;span style=&quot;color:#6a3e3e;&quot;&gt;x&lt;/span&gt;&lt;span style=&quot;color:#000000;&quot;&gt; == &lt;/span&gt;&lt;span style=&quot;color:#7f0055;font-weight:bold;&quot;&gt;null&lt;/span&gt;&lt;/p&gt;&lt;/div&gt;&lt;/div&gt;" style="text;whiteSpace=wrap;html=1;" parent="1" vertex="1">
          <mxGeometry x="710" y="360" width="110" height="40" as="geometry" />
        </mxCell>
        <mxCell id="bVzl48XAN6Z6IAqM6yS6-36" style="edgeStyle=orthogonalEdgeStyle;rounded=0;orthogonalLoop=1;jettySize=auto;html=1;entryX=0.5;entryY=0;entryDx=0;entryDy=0;" parent="1" source="bVzl48XAN6Z6IAqM6yS6-29" target="bVzl48XAN6Z6IAqM6yS6-30" edge="1">
          <mxGeometry relative="1" as="geometry" />
        </mxCell>
        <mxCell id="bVzl48XAN6Z6IAqM6yS6-29" value="" style="ellipse;whiteSpace=wrap;html=1;aspect=fixed;" parent="1" vertex="1">
          <mxGeometry x="800" y="300" width="60" height="60" as="geometry" />
        </mxCell>
        <mxCell id="bVzl48XAN6Z6IAqM6yS6-30" value="" style="ellipse;whiteSpace=wrap;html=1;aspect=fixed;" parent="1" vertex="1">
          <mxGeometry x="800" y="530" width="60" height="60" as="geometry" />
        </mxCell>
        <mxCell id="bVzl48XAN6Z6IAqM6yS6-32" value="" style="endArrow=classic;html=1;rounded=0;entryX=0;entryY=0;entryDx=0;entryDy=0;exitX=1;exitY=1;exitDx=0;exitDy=0;" parent="1" source="bVzl48XAN6Z6IAqM6yS6-24" target="bVzl48XAN6Z6IAqM6yS6-30" edge="1">
          <mxGeometry width="50" height="50" relative="1" as="geometry">
            <mxPoint x="690" y="570" as="sourcePoint" />
            <mxPoint x="740" y="520" as="targetPoint" />
          </mxGeometry>
        </mxCell>
        <mxCell id="bVzl48XAN6Z6IAqM6yS6-33" value="" style="endArrow=classic;html=1;rounded=0;entryX=0;entryY=1;entryDx=0;entryDy=0;exitX=1;exitY=0;exitDx=0;exitDy=0;" parent="1" source="bVzl48XAN6Z6IAqM6yS6-24" target="bVzl48XAN6Z6IAqM6yS6-29" edge="1">
          <mxGeometry width="50" height="50" relative="1" as="geometry">
            <mxPoint x="729" y="372" as="sourcePoint" />
            <mxPoint x="827" y="440" as="targetPoint" />
          </mxGeometry>
        </mxCell>
        <mxCell id="bVzl48XAN6Z6IAqM6yS6-34" value="&lt;div style=&quot;background-color:#ffffff;padding:0px 0px 0px 2px;&quot;&gt;&lt;div style=&quot;color: rgb(0, 0, 0); background-color: rgb(255, 255, 255); font-family: &amp;quot;Courier New&amp;quot;; font-size: 10pt;&quot;&gt;&lt;p style=&quot;background-color:#e8f2fe;margin:0;&quot;&gt;&lt;span style=&quot;color:#000000;&quot;&gt;&lt;/span&gt;¬(&lt;span style=&quot;color:#6a3e3e;&quot;&gt;x&lt;/span&gt;&lt;span style=&quot;color:#000000;&quot;&gt; == &lt;/span&gt;&lt;span style=&quot;color:#7f0055;font-weight:bold;&quot;&gt;null)&lt;/span&gt;&lt;/p&gt;&lt;/div&gt;&lt;/div&gt;" style="text;whiteSpace=wrap;html=1;" parent="1" vertex="1">
          <mxGeometry x="690" y="500" width="110" height="40" as="geometry" />
        </mxCell>
        <mxCell id="bVzl48XAN6Z6IAqM6yS6-35" value="&lt;div style=&quot;background-color:#ffffff;padding:0px 0px 0px 2px;&quot;&gt;&lt;div style=&quot;color: rgb(0, 0, 0); background-color: rgb(255, 255, 255); font-family: &amp;quot;Courier New&amp;quot;; font-size: 10pt;&quot;&gt;&lt;p style=&quot;margin:0;&quot;&gt;&lt;span style=&quot;color:#000000;&quot;&gt;&lt;/span&gt;&lt;span style=&quot;color:#6a3e3e;&quot;&gt;x&lt;/span&gt;&lt;span style=&quot;color:#000000;&quot;&gt; = &lt;/span&gt;&lt;span style=&quot;color:#7f0055;font-weight:bold;&quot;&gt;new&lt;/span&gt;&lt;span style=&quot;color:#000000;&quot;&gt; Node&amp;lt;&amp;gt;();&lt;/span&gt;&lt;/p&gt;&lt;p style=&quot;margin:0;&quot;&gt;&lt;span style=&quot;color:#000000;&quot;&gt;            &lt;/span&gt;&lt;span style=&quot;color:#6a3e3e;&quot;&gt;x&lt;/span&gt;&lt;span style=&quot;color:#000000;&quot;&gt;.&lt;/span&gt;&lt;span style=&quot;color:#0000c0;&quot;&gt;c&lt;/span&gt;&lt;span style=&quot;color:#000000;&quot;&gt; = &lt;/span&gt;&lt;span style=&quot;color:#6a3e3e;&quot;&gt;c&lt;/span&gt;&lt;span style=&quot;color:#000000;&quot;&gt;;&lt;/span&gt;&lt;/p&gt;&lt;/div&gt;&lt;/div&gt;" style="text;whiteSpace=wrap;html=1;" parent="1" vertex="1">
          <mxGeometry x="820" y="260" width="150" height="50" as="geometry" />
        </mxCell>
        <mxCell id="bVzl48XAN6Z6IAqM6yS6-37" value="&lt;div style=&quot;background-color:#ffffff;padding:0px 0px 0px 2px;&quot;&gt;&lt;div style=&quot;color: rgb(0, 0, 0); background-color: rgb(255, 255, 255); font-family: &amp;quot;Courier New&amp;quot;; font-size: 10pt;&quot;&gt;&lt;p style=&quot;background-color:#e8f2fe;margin:0;&quot;&gt;&lt;span style=&quot;color:#000000;&quot;&gt;&lt;/span&gt;&lt;span style=&quot;color:#6a3e3e;&quot;&gt;c&lt;/span&gt;&lt;span style=&quot;color:#000000;&quot;&gt; &amp;lt; &lt;/span&gt;&lt;span style=&quot;color:#6a3e3e;&quot;&gt;x&lt;/span&gt;&lt;span style=&quot;color:#000000;&quot;&gt;.&lt;/span&gt;&lt;span style=&quot;color:#0000c0;&quot;&gt;c&lt;/span&gt;&lt;/p&gt;&lt;/div&gt;&lt;/div&gt;" style="text;whiteSpace=wrap;html=1;rotation=-15;" parent="1" vertex="1">
          <mxGeometry x="858" y="470" width="90" height="40" as="geometry" />
        </mxCell>
        <mxCell id="bVzl48XAN6Z6IAqM6yS6-38" value="" style="ellipse;whiteSpace=wrap;html=1;aspect=fixed;" parent="1" vertex="1">
          <mxGeometry x="930" y="420" width="60" height="60" as="geometry" />
        </mxCell>
        <mxCell id="bVzl48XAN6Z6IAqM6yS6-40" value="" style="ellipse;whiteSpace=wrap;html=1;aspect=fixed;" parent="1" vertex="1">
          <mxGeometry x="928" y="640" width="60" height="60" as="geometry" />
        </mxCell>
        <mxCell id="bVzl48XAN6Z6IAqM6yS6-41" value="" style="endArrow=classic;html=1;rounded=0;entryX=0;entryY=1;entryDx=0;entryDy=0;exitX=1;exitY=0;exitDx=0;exitDy=0;" parent="1" source="bVzl48XAN6Z6IAqM6yS6-30" target="bVzl48XAN6Z6IAqM6yS6-38" edge="1">
          <mxGeometry width="50" height="50" relative="1" as="geometry">
            <mxPoint x="880" y="540" as="sourcePoint" />
            <mxPoint x="930" y="490" as="targetPoint" />
          </mxGeometry>
        </mxCell>
        <mxCell id="bVzl48XAN6Z6IAqM6yS6-42" value="" style="endArrow=classic;html=1;rounded=0;entryX=0;entryY=0;entryDx=0;entryDy=0;exitX=1;exitY=1;exitDx=0;exitDy=0;" parent="1" source="bVzl48XAN6Z6IAqM6yS6-30" target="bVzl48XAN6Z6IAqM6yS6-40" edge="1">
          <mxGeometry width="50" height="50" relative="1" as="geometry">
            <mxPoint x="840" y="660" as="sourcePoint" />
            <mxPoint x="890" y="610" as="targetPoint" />
          </mxGeometry>
        </mxCell>
        <mxCell id="bVzl48XAN6Z6IAqM6yS6-43" value="&lt;div style=&quot;background-color:#ffffff;padding:0px 0px 0px 2px;&quot;&gt;&lt;div style=&quot;color: rgb(0, 0, 0); background-color: rgb(255, 255, 255); font-family: &amp;quot;Courier New&amp;quot;; font-size: 10pt;&quot;&gt;&lt;p style=&quot;background-color:#e8f2fe;margin:0;&quot;&gt;&lt;span style=&quot;color:#000000;&quot;&gt;&lt;/span&gt;¬(&lt;span style=&quot;color:#6a3e3e;&quot;&gt;c&lt;/span&gt;&lt;span style=&quot;color:#000000;&quot;&gt; &amp;lt; &lt;/span&gt;&lt;span style=&quot;color:#6a3e3e;&quot;&gt;x&lt;/span&gt;&lt;span style=&quot;color:#000000;&quot;&gt;.&lt;/span&gt;&lt;span style=&quot;color:#0000c0;&quot;&gt;c)&lt;/span&gt;&lt;/p&gt;&lt;/div&gt;&lt;/div&gt;" style="text;whiteSpace=wrap;html=1;rotation=30;" parent="1" vertex="1">
          <mxGeometry x="840" y="610" width="90" height="40" as="geometry" />
        </mxCell>
        <mxCell id="bVzl48XAN6Z6IAqM6yS6-45" value="&lt;div style=&quot;background-color:#ffffff;padding:0px 0px 0px 2px;&quot;&gt;&lt;div style=&quot;color: rgb(0, 0, 0); background-color: rgb(255, 255, 255); font-family: &amp;quot;Courier New&amp;quot;; font-size: 10pt;&quot;&gt;&lt;p style=&quot;background-color:#e8f2fe;margin:0;&quot;&gt;&lt;span style=&quot;color:#000000;&quot;&gt;&lt;/span&gt;&lt;span style=&quot;color:#6a3e3e;&quot;&gt;c&lt;/span&gt;&lt;span style=&quot;color:#000000;&quot;&gt;&amp;nbsp;&amp;gt;&amp;nbsp;&lt;/span&gt;&lt;span style=&quot;color:#6a3e3e;&quot;&gt;x&lt;/span&gt;&lt;span style=&quot;color:#000000;&quot;&gt;.&lt;/span&gt;&lt;span style=&quot;color:#0000c0;&quot;&gt;c&lt;/span&gt;&lt;/p&gt;&lt;/div&gt;&lt;/div&gt;" style="text;whiteSpace=wrap;html=1;rotation=-15;" parent="1" vertex="1">
          <mxGeometry x="987" y="580" width="90" height="40" as="geometry" />
        </mxCell>
        <mxCell id="bVzl48XAN6Z6IAqM6yS6-46" value="" style="ellipse;whiteSpace=wrap;html=1;aspect=fixed;" parent="1" vertex="1">
          <mxGeometry x="1059" y="543" width="60" height="60" as="geometry" />
        </mxCell>
        <mxCell id="bVzl48XAN6Z6IAqM6yS6-47" value="" style="ellipse;whiteSpace=wrap;html=1;aspect=fixed;" parent="1" vertex="1">
          <mxGeometry x="1057" y="750" width="60" height="60" as="geometry" />
        </mxCell>
        <mxCell id="bVzl48XAN6Z6IAqM6yS6-48" value="" style="endArrow=classic;html=1;rounded=0;entryX=0;entryY=1;entryDx=0;entryDy=0;exitX=1;exitY=0;exitDx=0;exitDy=0;" parent="1" target="bVzl48XAN6Z6IAqM6yS6-46" edge="1" source="bVzl48XAN6Z6IAqM6yS6-40">
          <mxGeometry width="50" height="50" relative="1" as="geometry">
            <mxPoint x="970" y="630" as="sourcePoint" />
            <mxPoint x="1059" y="600" as="targetPoint" />
          </mxGeometry>
        </mxCell>
        <mxCell id="bVzl48XAN6Z6IAqM6yS6-49" value="" style="endArrow=classic;html=1;rounded=0;entryX=0;entryY=0;entryDx=0;entryDy=0;exitX=1;exitY=1;exitDx=0;exitDy=0;" parent="1" target="bVzl48XAN6Z6IAqM6yS6-47" edge="1" source="bVzl48XAN6Z6IAqM6yS6-40">
          <mxGeometry width="50" height="50" relative="1" as="geometry">
            <mxPoint x="1010" y="680" as="sourcePoint" />
            <mxPoint x="1019" y="720" as="targetPoint" />
          </mxGeometry>
        </mxCell>
        <mxCell id="bVzl48XAN6Z6IAqM6yS6-50" value="&lt;div style=&quot;background-color:#ffffff;padding:0px 0px 0px 2px;&quot;&gt;&lt;div style=&quot;color: rgb(0, 0, 0); background-color: rgb(255, 255, 255); font-family: &amp;quot;Courier New&amp;quot;; font-size: 10pt;&quot;&gt;&lt;p style=&quot;background-color:#e8f2fe;margin:0;&quot;&gt;&lt;span style=&quot;color:#000000;&quot;&gt;&lt;/span&gt;¬(&lt;span style=&quot;color:#6a3e3e;&quot;&gt;c&lt;/span&gt;&lt;span style=&quot;color:#000000;&quot;&gt;&amp;nbsp;&amp;gt;&amp;nbsp;&lt;/span&gt;&lt;span style=&quot;color:#6a3e3e;&quot;&gt;x&lt;/span&gt;&lt;span style=&quot;color:#000000;&quot;&gt;.&lt;/span&gt;&lt;span style=&quot;color:#0000c0;&quot;&gt;c)&lt;/span&gt;&lt;/p&gt;&lt;/div&gt;&lt;/div&gt;" style="text;whiteSpace=wrap;html=1;rotation=30;" parent="1" vertex="1">
          <mxGeometry x="969" y="727.5" width="90" height="40" as="geometry" />
        </mxCell>
        <mxCell id="bVzl48XAN6Z6IAqM6yS6-51" value="" style="ellipse;whiteSpace=wrap;html=1;aspect=fixed;" parent="1" vertex="1">
          <mxGeometry x="1057" y="750" width="60" height="60" as="geometry" />
        </mxCell>
        <mxCell id="bVzl48XAN6Z6IAqM6yS6-52" value="&lt;div style=&quot;background-color:#ffffff;padding:0px 0px 0px 2px;&quot;&gt;&lt;div style=&quot;color: rgb(0, 0, 0); background-color: rgb(255, 255, 255); font-family: &amp;quot;Courier New&amp;quot;; font-size: 10pt;&quot;&gt;&lt;p style=&quot;background-color:#e8f2fe;margin:0;&quot;&gt;&lt;span style=&quot;color:#000000;&quot;&gt;&lt;/span&gt;&lt;/p&gt;&lt;div style=&quot;padding: 0px 0px 0px 2px;&quot;&gt;&lt;div style=&quot;font-size: 10pt;&quot;&gt;&lt;p style=&quot;background-color:#e8f2fe;margin:0;&quot;&gt;d &amp;lt; &lt;span style=&quot;color:#6a3e3e;&quot;&gt;key&lt;/span&gt;.length() - 1&lt;/p&gt;&lt;/div&gt;&lt;/div&gt;&lt;/div&gt;&lt;/div&gt;" style="text;whiteSpace=wrap;html=1;rotation=-15;" parent="1" vertex="1">
          <mxGeometry x="1091" y="680" width="140" height="40" as="geometry" />
        </mxCell>
        <mxCell id="bVzl48XAN6Z6IAqM6yS6-53" value="" style="ellipse;whiteSpace=wrap;html=1;aspect=fixed;" parent="1" vertex="1">
          <mxGeometry x="1249.66" y="660" width="60" height="60" as="geometry" />
        </mxCell>
        <mxCell id="bVzl48XAN6Z6IAqM6yS6-54" value="" style="ellipse;whiteSpace=wrap;html=1;aspect=fixed;" parent="1" vertex="1">
          <mxGeometry x="1241" y="850" width="60" height="60" as="geometry" />
        </mxCell>
        <mxCell id="bVzl48XAN6Z6IAqM6yS6-55" value="" style="endArrow=classic;html=1;rounded=0;entryX=0;entryY=1;entryDx=0;entryDy=0;exitX=1;exitY=0;exitDx=0;exitDy=0;" parent="1" source="bVzl48XAN6Z6IAqM6yS6-51" target="bVzl48XAN6Z6IAqM6yS6-53" edge="1">
          <mxGeometry width="50" height="50" relative="1" as="geometry">
            <mxPoint x="1137" y="760" as="sourcePoint" />
            <mxPoint x="1187" y="710" as="targetPoint" />
          </mxGeometry>
        </mxCell>
        <mxCell id="bVzl48XAN6Z6IAqM6yS6-56" value="" style="endArrow=classic;html=1;rounded=0;entryX=0;entryY=0;entryDx=0;entryDy=0;exitX=1;exitY=1;exitDx=0;exitDy=0;" parent="1" source="bVzl48XAN6Z6IAqM6yS6-51" target="bVzl48XAN6Z6IAqM6yS6-54" edge="1">
          <mxGeometry width="50" height="50" relative="1" as="geometry">
            <mxPoint x="1097" y="880" as="sourcePoint" />
            <mxPoint x="1147" y="830" as="targetPoint" />
          </mxGeometry>
        </mxCell>
        <mxCell id="bVzl48XAN6Z6IAqM6yS6-58" value="&lt;div style=&quot;background-color:#ffffff;padding:0px 0px 0px 2px;&quot;&gt;&lt;div style=&quot;color: rgb(0, 0, 0); background-color: rgb(255, 255, 255); font-family: &amp;quot;Courier New&amp;quot;; font-size: 10pt;&quot;&gt;&lt;p style=&quot;background-color:#e8f2fe;margin:0;&quot;&gt;&lt;span style=&quot;color:#000000;&quot;&gt;&lt;/span&gt;&lt;/p&gt;&lt;div style=&quot;padding: 0px 0px 0px 2px;&quot;&gt;&lt;div style=&quot;font-size: 10pt;&quot;&gt;&lt;p style=&quot;background-color:#e8f2fe;margin:0;&quot;&gt;¬(d &amp;lt; &lt;span style=&quot;color:#6a3e3e;&quot;&gt;key&lt;/span&gt;.length() - 1)&lt;/p&gt;&lt;/div&gt;&lt;/div&gt;&lt;/div&gt;&lt;/div&gt;" style="text;whiteSpace=wrap;html=1;rotation=30;" parent="1" vertex="1">
          <mxGeometry x="1089.66" y="845" width="160" height="40" as="geometry" />
        </mxCell>
        <mxCell id="bVzl48XAN6Z6IAqM6yS6-59" value="&lt;div style=&quot;background-color:#ffffff;padding:0px 0px 0px 2px;&quot;&gt;&lt;div style=&quot;color: rgb(0, 0, 0); background-color: rgb(255, 255, 255); font-family: &amp;quot;Courier New&amp;quot;; font-size: 10pt;&quot;&gt;&lt;p style=&quot;background-color:#e8f2fe;margin:0;&quot;&gt;&lt;span style=&quot;color:#000000;&quot;&gt;&lt;/span&gt;&lt;span style=&quot;color:#6a3e3e;&quot;&gt;x&lt;/span&gt;&lt;span style=&quot;color:#000000;&quot;&gt;.&lt;/span&gt;&lt;span style=&quot;color:#0000c0;&quot;&gt;left&lt;/span&gt;&lt;span style=&quot;color:#000000;&quot;&gt;  = put(&lt;/span&gt;&lt;span style=&quot;color:#6a3e3e;&quot;&gt;x&lt;/span&gt;&lt;span style=&quot;color:#000000;&quot;&gt;.&lt;/span&gt;&lt;span style=&quot;color:#0000c0;&quot;&gt;left&lt;/span&gt;&lt;span style=&quot;color:#000000;&quot;&gt;,  &lt;/span&gt;&lt;span style=&quot;color:#6a3e3e;&quot;&gt;key&lt;/span&gt;&lt;span style=&quot;color:#000000;&quot;&gt;, &lt;/span&gt;&lt;span style=&quot;color:#6a3e3e;&quot;&gt;val&lt;/span&gt;&lt;span style=&quot;color:#000000;&quot;&gt;, &lt;/span&gt;&lt;span style=&quot;color:#6a3e3e;&quot;&gt;d&lt;/span&gt;&lt;span style=&quot;color:#000000;&quot;&gt;);&lt;/span&gt;&lt;/p&gt;&lt;/div&gt;&lt;/div&gt;" style="text;whiteSpace=wrap;html=1;" parent="1" vertex="1">
          <mxGeometry x="961" y="460" width="170" height="40" as="geometry" />
        </mxCell>
        <mxCell id="bVzl48XAN6Z6IAqM6yS6-60" value="&lt;div style=&quot;background-color:#ffffff;padding:0px 0px 0px 2px;&quot;&gt;&lt;div style=&quot;color: rgb(0, 0, 0); background-color: rgb(255, 255, 255); font-family: &amp;quot;Courier New&amp;quot;; font-size: 10pt;&quot;&gt;&lt;p style=&quot;background-color:#e8f2fe;margin:0;&quot;&gt;&lt;span style=&quot;color:#000000;&quot;&gt;&lt;/span&gt;&lt;span style=&quot;color:#6a3e3e;&quot;&gt;x&lt;/span&gt;&lt;span style=&quot;color:#000000;&quot;&gt;.&lt;/span&gt;&lt;span style=&quot;color:#0000c0;&quot;&gt;right&lt;/span&gt;&lt;span style=&quot;color:#000000;&quot;&gt; = put(&lt;/span&gt;&lt;span style=&quot;color:#6a3e3e;&quot;&gt;x&lt;/span&gt;&lt;span style=&quot;color:#000000;&quot;&gt;.&lt;/span&gt;&lt;span style=&quot;color:#0000c0;&quot;&gt;right&lt;/span&gt;&lt;span style=&quot;color:#000000;&quot;&gt;, &lt;/span&gt;&lt;span style=&quot;color:#6a3e3e;&quot;&gt;key&lt;/span&gt;&lt;span style=&quot;color:#000000;&quot;&gt;, &lt;/span&gt;&lt;span style=&quot;color:#6a3e3e;&quot;&gt;val&lt;/span&gt;&lt;span style=&quot;color:#000000;&quot;&gt;, &lt;/span&gt;&lt;span style=&quot;color:#6a3e3e;&quot;&gt;d&lt;/span&gt;&lt;span style=&quot;color:#000000;&quot;&gt;);&lt;/span&gt;&lt;/p&gt;&lt;/div&gt;&lt;/div&gt;" style="text;whiteSpace=wrap;html=1;" parent="1" vertex="1">
          <mxGeometry x="1091" y="570" width="180" height="40" as="geometry" />
        </mxCell>
        <mxCell id="bVzl48XAN6Z6IAqM6yS6-61" value="&lt;div style=&quot;background-color:#ffffff;padding:0px 0px 0px 2px;&quot;&gt;&lt;div style=&quot;color: rgb(0, 0, 0); background-color: rgb(255, 255, 255); font-family: &amp;quot;Courier New&amp;quot;; font-size: 10pt;&quot;&gt;&lt;p style=&quot;background-color:#e8f2fe;margin:0;&quot;&gt;&lt;span style=&quot;color:#000000;&quot;&gt;&lt;/span&gt;&lt;span style=&quot;color:#6a3e3e;&quot;&gt;x&lt;/span&gt;&lt;span style=&quot;color:#000000;&quot;&gt;.&lt;/span&gt;&lt;span style=&quot;color:#0000c0;&quot;&gt;mid&lt;/span&gt;&lt;span style=&quot;color:#000000;&quot;&gt;   = put(&lt;/span&gt;&lt;span style=&quot;color:#6a3e3e;&quot;&gt;x&lt;/span&gt;&lt;span style=&quot;color:#000000;&quot;&gt;.&lt;/span&gt;&lt;span style=&quot;color:#0000c0;&quot;&gt;mid&lt;/span&gt;&lt;span style=&quot;color:#000000;&quot;&gt;,   &lt;/span&gt;&lt;span style=&quot;color:#6a3e3e;&quot;&gt;key&lt;/span&gt;&lt;span style=&quot;color:#000000;&quot;&gt;, &lt;/span&gt;&lt;span style=&quot;color:#6a3e3e;&quot;&gt;val&lt;/span&gt;&lt;span style=&quot;color:#000000;&quot;&gt;, &lt;/span&gt;&lt;span style=&quot;color:#6a3e3e;&quot;&gt;d&lt;/span&gt;&lt;span style=&quot;color:#000000;&quot;&gt;+1);&lt;/span&gt;&lt;/p&gt;&lt;/div&gt;&lt;/div&gt;" style="text;whiteSpace=wrap;html=1;" parent="1" vertex="1">
          <mxGeometry x="1320" y="687.5" width="170" height="40" as="geometry" />
        </mxCell>
        <mxCell id="bVzl48XAN6Z6IAqM6yS6-62" value="&lt;div style=&quot;background-color:#ffffff;padding:0px 0px 0px 2px;&quot;&gt;&lt;div style=&quot;color: rgb(0, 0, 0); background-color: rgb(255, 255, 255); font-family: &amp;quot;Courier New&amp;quot;; font-size: 10pt;&quot;&gt;&lt;p style=&quot;background-color:#e8f2fe;margin:0;&quot;&gt;&lt;span style=&quot;color:#000000;&quot;&gt;&lt;/span&gt;&lt;span style=&quot;color:#6a3e3e;&quot;&gt;x&lt;/span&gt;&lt;span style=&quot;color:#000000;&quot;&gt;.&lt;/span&gt;&lt;span style=&quot;color:#0000c0;&quot;&gt;val&lt;/span&gt;&lt;span style=&quot;color:#000000;&quot;&gt;   = &lt;/span&gt;&lt;span style=&quot;color:#6a3e3e;&quot;&gt;val&lt;/span&gt;&lt;span style=&quot;color:#000000;&quot;&gt;;&lt;/span&gt;&lt;/p&gt;&lt;/div&gt;&lt;/div&gt;" style="text;whiteSpace=wrap;html=1;" parent="1" vertex="1">
          <mxGeometry x="1271" y="885" width="130" height="40" as="geometry" />
        </mxCell>
        <mxCell id="bVzl48XAN6Z6IAqM6yS6-63" value="" style="ellipse;whiteSpace=wrap;html=1;aspect=fixed;strokeWidth=3;" parent="1" vertex="1">
          <mxGeometry x="1580" y="570" width="60" height="60" as="geometry" />
        </mxCell>
        <mxCell id="bVzl48XAN6Z6IAqM6yS6-64" value="" style="endArrow=classic;html=1;rounded=0;exitX=1;exitY=0.5;exitDx=0;exitDy=0;entryX=0.5;entryY=1;entryDx=0;entryDy=0;" parent="1" source="bVzl48XAN6Z6IAqM6yS6-54" target="bVzl48XAN6Z6IAqM6yS6-63" edge="1">
          <mxGeometry width="50" height="50" relative="1" as="geometry">
            <mxPoint x="1390" y="840" as="sourcePoint" />
            <mxPoint x="1440" y="790" as="targetPoint" />
          </mxGeometry>
        </mxCell>
        <mxCell id="bVzl48XAN6Z6IAqM6yS6-65" value="" style="endArrow=classic;html=1;rounded=0;exitX=0.967;exitY=0.25;exitDx=0;exitDy=0;exitPerimeter=0;entryX=0.017;entryY=0.717;entryDx=0;entryDy=0;entryPerimeter=0;" parent="1" source="bVzl48XAN6Z6IAqM6yS6-53" target="bVzl48XAN6Z6IAqM6yS6-63" edge="1">
          <mxGeometry width="50" height="50" relative="1" as="geometry">
            <mxPoint x="1370" y="620" as="sourcePoint" />
            <mxPoint x="1420" y="570" as="targetPoint" />
          </mxGeometry>
        </mxCell>
        <mxCell id="bVzl48XAN6Z6IAqM6yS6-66" value="" style="endArrow=classic;html=1;rounded=0;exitX=0.122;exitY=-0.225;exitDx=0;exitDy=0;entryX=-0.067;entryY=0.367;entryDx=0;entryDy=0;entryPerimeter=0;exitPerimeter=0;" parent="1" source="bVzl48XAN6Z6IAqM6yS6-60" target="bVzl48XAN6Z6IAqM6yS6-63" edge="1">
          <mxGeometry width="50" height="50" relative="1" as="geometry">
            <mxPoint x="1200" y="540" as="sourcePoint" />
            <mxPoint x="1250" y="490" as="targetPoint" />
          </mxGeometry>
        </mxCell>
        <mxCell id="bVzl48XAN6Z6IAqM6yS6-67" value="" style="endArrow=classic;html=1;rounded=0;exitX=1;exitY=0;exitDx=0;exitDy=0;entryX=0;entryY=0;entryDx=0;entryDy=0;" parent="1" source="bVzl48XAN6Z6IAqM6yS6-38" target="bVzl48XAN6Z6IAqM6yS6-63" edge="1">
          <mxGeometry width="50" height="50" relative="1" as="geometry">
            <mxPoint x="1220" y="530" as="sourcePoint" />
            <mxPoint x="1270" y="480" as="targetPoint" />
          </mxGeometry>
        </mxCell>
        <mxCell id="bVzl48XAN6Z6IAqM6yS6-68" value="&lt;div style=&quot;background-color:#ffffff;padding:0px 0px 0px 2px;&quot;&gt;&lt;div style=&quot;color: rgb(0, 0, 0); background-color: rgb(255, 255, 255); font-family: &amp;quot;Courier New&amp;quot;; font-size: 10pt;&quot;&gt;&lt;p style=&quot;background-color:#e8f2fe;margin:0;&quot;&gt;&lt;span style=&quot;color:#000000;&quot;&gt;   &lt;/span&gt;&lt;span style=&quot;color:#7f0055;font-weight:bold;&quot;&gt;return&lt;/span&gt;&lt;span style=&quot;color:#000000;&quot;&gt; &lt;/span&gt;&lt;span style=&quot;color:#6a3e3e;&quot;&gt;x&lt;/span&gt;&lt;span style=&quot;color:#000000;&quot;&gt;;&lt;/span&gt;&lt;/p&gt;&lt;/div&gt;&lt;/div&gt;" style="text;whiteSpace=wrap;html=1;" parent="1" vertex="1">
          <mxGeometry x="1600" y="580" width="110" height="40" as="geometry" />
        </mxCell>
        <mxCell id="tPLSbW6VGkIm-RLQHWrn-1" value="" style="ellipse;whiteSpace=wrap;html=1;aspect=fixed;" parent="1" vertex="1">
          <mxGeometry x="1802" y="553.5" width="60" height="60" as="geometry" />
        </mxCell>
        <mxCell id="tPLSbW6VGkIm-RLQHWrn-2" value="" style="endArrow=classic;html=1;rounded=0;entryX=0;entryY=0.5;entryDx=0;entryDy=0;" parent="1" target="tPLSbW6VGkIm-RLQHWrn-1" edge="1">
          <mxGeometry width="50" height="50" relative="1" as="geometry">
            <mxPoint x="1742" y="583.5" as="sourcePoint" />
            <mxPoint x="1802" y="563.5" as="targetPoint" />
          </mxGeometry>
        </mxCell>
        <mxCell id="tPLSbW6VGkIm-RLQHWrn-3" value="&lt;div style=&quot;background-color:#ffffff;padding:0px 0px 0px 2px;&quot;&gt;&lt;div style=&quot;color: rgb(0, 0, 0); background-color: rgb(255, 255, 255); font-family: &amp;quot;Courier New&amp;quot;; font-size: 10pt;&quot;&gt;&lt;p style=&quot;background-color:#e8f2fe;margin:0;&quot;&gt;&lt;span style=&quot;color:#000000;&quot;&gt;&lt;/span&gt;&lt;span style=&quot;color:#7f0055;font-weight:bold;&quot;&gt;char&lt;/span&gt;&lt;span style=&quot;color:#000000;&quot;&gt; &lt;/span&gt;&lt;span style=&quot;color:#6a3e3e;&quot;&gt;c&lt;/span&gt;&lt;span style=&quot;color:#000000;&quot;&gt; = &lt;/span&gt;&lt;span style=&quot;color:#6a3e3e;&quot;&gt;key&lt;/span&gt;&lt;span style=&quot;color:#000000;&quot;&gt;.charAt(&lt;/span&gt;&lt;span style=&quot;color:#6a3e3e;&quot;&gt;&lt;u&gt;&lt;b&gt;d&lt;/b&gt;&lt;/u&gt;&lt;/span&gt;&lt;span style=&quot;color:#000000;&quot;&gt;);&lt;/span&gt;&lt;/p&gt;&lt;/div&gt;&lt;/div&gt;" style="text;whiteSpace=wrap;html=1;" parent="1" vertex="1">
          <mxGeometry x="1732" y="589" width="115" height="40" as="geometry" />
        </mxCell>
        <mxCell id="tPLSbW6VGkIm-RLQHWrn-4" value="&lt;div style=&quot;background-color:#ffffff;padding:0px 0px 0px 2px;&quot;&gt;&lt;div style=&quot;color: rgb(0, 0, 0); background-color: rgb(255, 255, 255); font-family: &amp;quot;Courier New&amp;quot;; font-size: 10pt;&quot;&gt;&lt;p style=&quot;background-color:#e8f2fe;margin:0;&quot;&gt;&lt;span style=&quot;color:#000000;&quot;&gt;&lt;/span&gt;&lt;span style=&quot;color:#6a3e3e;&quot;&gt;x&lt;/span&gt;&lt;span style=&quot;color:#000000;&quot;&gt; == &lt;/span&gt;&lt;span style=&quot;color:#7f0055;font-weight:bold;&quot;&gt;null&lt;/span&gt;&lt;/p&gt;&lt;/div&gt;&lt;/div&gt;" style="text;whiteSpace=wrap;html=1;" parent="1" vertex="1">
          <mxGeometry x="1852" y="493.5" width="110" height="40" as="geometry" />
        </mxCell>
        <mxCell id="tPLSbW6VGkIm-RLQHWrn-5" style="edgeStyle=orthogonalEdgeStyle;rounded=0;orthogonalLoop=1;jettySize=auto;html=1;entryX=0.5;entryY=0;entryDx=0;entryDy=0;" parent="1" source="tPLSbW6VGkIm-RLQHWrn-6" target="tPLSbW6VGkIm-RLQHWrn-7" edge="1">
          <mxGeometry relative="1" as="geometry" />
        </mxCell>
        <mxCell id="tPLSbW6VGkIm-RLQHWrn-6" value="" style="ellipse;whiteSpace=wrap;html=1;aspect=fixed;" parent="1" vertex="1">
          <mxGeometry x="1942" y="433.5" width="60" height="60" as="geometry" />
        </mxCell>
        <mxCell id="tPLSbW6VGkIm-RLQHWrn-7" value="" style="ellipse;whiteSpace=wrap;html=1;aspect=fixed;" parent="1" vertex="1">
          <mxGeometry x="1942" y="663.5" width="60" height="60" as="geometry" />
        </mxCell>
        <mxCell id="tPLSbW6VGkIm-RLQHWrn-8" value="" style="endArrow=classic;html=1;rounded=0;entryX=0;entryY=0;entryDx=0;entryDy=0;" parent="1" target="tPLSbW6VGkIm-RLQHWrn-7" edge="1">
          <mxGeometry width="50" height="50" relative="1" as="geometry">
            <mxPoint x="1842" y="616" as="sourcePoint" />
            <mxPoint x="1882" y="653.5" as="targetPoint" />
          </mxGeometry>
        </mxCell>
        <mxCell id="tPLSbW6VGkIm-RLQHWrn-9" value="" style="endArrow=classic;html=1;rounded=0;entryX=0;entryY=1;entryDx=0;entryDy=0;exitX=1;exitY=0;exitDx=0;exitDy=0;" parent="1" source="tPLSbW6VGkIm-RLQHWrn-1" target="tPLSbW6VGkIm-RLQHWrn-6" edge="1">
          <mxGeometry width="50" height="50" relative="1" as="geometry">
            <mxPoint x="1871" y="505.5" as="sourcePoint" />
            <mxPoint x="1969" y="573.5" as="targetPoint" />
          </mxGeometry>
        </mxCell>
        <mxCell id="tPLSbW6VGkIm-RLQHWrn-10" value="&lt;div style=&quot;background-color:#ffffff;padding:0px 0px 0px 2px;&quot;&gt;&lt;div style=&quot;color: rgb(0, 0, 0); background-color: rgb(255, 255, 255); font-family: &amp;quot;Courier New&amp;quot;; font-size: 10pt;&quot;&gt;&lt;p style=&quot;background-color:#e8f2fe;margin:0;&quot;&gt;&lt;span style=&quot;color:#000000;&quot;&gt;&lt;/span&gt;¬(&lt;span style=&quot;color:#6a3e3e;&quot;&gt;x&lt;/span&gt;&lt;span style=&quot;color:#000000;&quot;&gt; == &lt;/span&gt;&lt;span style=&quot;color:#7f0055;font-weight:bold;&quot;&gt;null)&lt;/span&gt;&lt;/p&gt;&lt;/div&gt;&lt;/div&gt;" style="text;whiteSpace=wrap;html=1;" parent="1" vertex="1">
          <mxGeometry x="1832" y="633.5" width="110" height="40" as="geometry" />
        </mxCell>
        <mxCell id="tPLSbW6VGkIm-RLQHWrn-11" value="&lt;div style=&quot;background-color:#ffffff;padding:0px 0px 0px 2px;&quot;&gt;&lt;div style=&quot;color: rgb(0, 0, 0); background-color: rgb(255, 255, 255); font-family: &amp;quot;Courier New&amp;quot;; font-size: 10pt;&quot;&gt;&lt;p style=&quot;margin:0;&quot;&gt;&lt;span style=&quot;color:#000000;&quot;&gt;&lt;/span&gt;&lt;span style=&quot;color:#6a3e3e;&quot;&gt;x&lt;/span&gt;&lt;span style=&quot;color:#000000;&quot;&gt; = &lt;/span&gt;&lt;span style=&quot;color:#7f0055;font-weight:bold;&quot;&gt;new&lt;/span&gt;&lt;span style=&quot;color:#000000;&quot;&gt; Node&amp;lt;&amp;gt;();&lt;/span&gt;&lt;/p&gt;&lt;p style=&quot;margin:0;&quot;&gt;&lt;span style=&quot;color:#000000;&quot;&gt;            &lt;/span&gt;&lt;span style=&quot;color:#6a3e3e;&quot;&gt;x&lt;/span&gt;&lt;span style=&quot;color:#000000;&quot;&gt;.&lt;/span&gt;&lt;span style=&quot;color:#0000c0;&quot;&gt;c&lt;/span&gt;&lt;span style=&quot;color:#000000;&quot;&gt; = &lt;/span&gt;&lt;span style=&quot;color:#6a3e3e;&quot;&gt;c&lt;/span&gt;&lt;span style=&quot;color:#000000;&quot;&gt;;&lt;/span&gt;&lt;/p&gt;&lt;/div&gt;&lt;/div&gt;" style="text;whiteSpace=wrap;html=1;" parent="1" vertex="1">
          <mxGeometry x="1962" y="393.5" width="150" height="50" as="geometry" />
        </mxCell>
        <mxCell id="tPLSbW6VGkIm-RLQHWrn-12" value="&lt;div style=&quot;background-color:#ffffff;padding:0px 0px 0px 2px;&quot;&gt;&lt;div style=&quot;color: rgb(0, 0, 0); background-color: rgb(255, 255, 255); font-family: &amp;quot;Courier New&amp;quot;; font-size: 10pt;&quot;&gt;&lt;p style=&quot;background-color:#e8f2fe;margin:0;&quot;&gt;&lt;span style=&quot;color:#000000;&quot;&gt;&lt;/span&gt;&lt;span style=&quot;color:#6a3e3e;&quot;&gt;c&lt;/span&gt;&lt;span style=&quot;color:#000000;&quot;&gt; &amp;lt; &lt;/span&gt;&lt;span style=&quot;color:#6a3e3e;&quot;&gt;x&lt;/span&gt;&lt;span style=&quot;color:#000000;&quot;&gt;.&lt;/span&gt;&lt;span style=&quot;color:#0000c0;&quot;&gt;c&lt;/span&gt;&lt;/p&gt;&lt;/div&gt;&lt;/div&gt;" style="text;whiteSpace=wrap;html=1;rotation=-15;" parent="1" vertex="1">
          <mxGeometry x="2000" y="603.5" width="90" height="40" as="geometry" />
        </mxCell>
        <mxCell id="tPLSbW6VGkIm-RLQHWrn-13" value="" style="ellipse;whiteSpace=wrap;html=1;aspect=fixed;" parent="1" vertex="1">
          <mxGeometry x="2072" y="553.5" width="60" height="60" as="geometry" />
        </mxCell>
        <mxCell id="tPLSbW6VGkIm-RLQHWrn-14" value="" style="ellipse;whiteSpace=wrap;html=1;aspect=fixed;" parent="1" vertex="1">
          <mxGeometry x="2070" y="773.5" width="60" height="60" as="geometry" />
        </mxCell>
        <mxCell id="tPLSbW6VGkIm-RLQHWrn-15" value="" style="endArrow=classic;html=1;rounded=0;entryX=0;entryY=1;entryDx=0;entryDy=0;exitX=1;exitY=0;exitDx=0;exitDy=0;" parent="1" source="tPLSbW6VGkIm-RLQHWrn-7" target="tPLSbW6VGkIm-RLQHWrn-13" edge="1">
          <mxGeometry width="50" height="50" relative="1" as="geometry">
            <mxPoint x="2022" y="673.5" as="sourcePoint" />
            <mxPoint x="2072" y="623.5" as="targetPoint" />
          </mxGeometry>
        </mxCell>
        <mxCell id="tPLSbW6VGkIm-RLQHWrn-16" value="" style="endArrow=classic;html=1;rounded=0;entryX=0;entryY=0;entryDx=0;entryDy=0;exitX=1;exitY=1;exitDx=0;exitDy=0;" parent="1" source="tPLSbW6VGkIm-RLQHWrn-7" target="tPLSbW6VGkIm-RLQHWrn-14" edge="1">
          <mxGeometry width="50" height="50" relative="1" as="geometry">
            <mxPoint x="1982" y="793.5" as="sourcePoint" />
            <mxPoint x="2032" y="743.5" as="targetPoint" />
          </mxGeometry>
        </mxCell>
        <mxCell id="tPLSbW6VGkIm-RLQHWrn-17" value="&lt;div style=&quot;background-color:#ffffff;padding:0px 0px 0px 2px;&quot;&gt;&lt;div style=&quot;color: rgb(0, 0, 0); background-color: rgb(255, 255, 255); font-family: &amp;quot;Courier New&amp;quot;; font-size: 10pt;&quot;&gt;&lt;p style=&quot;background-color:#e8f2fe;margin:0;&quot;&gt;&lt;span style=&quot;color:#000000;&quot;&gt;&lt;/span&gt;¬(&lt;span style=&quot;color:#6a3e3e;&quot;&gt;c&lt;/span&gt;&lt;span style=&quot;color:#000000;&quot;&gt; &amp;lt; &lt;/span&gt;&lt;span style=&quot;color:#6a3e3e;&quot;&gt;x&lt;/span&gt;&lt;span style=&quot;color:#000000;&quot;&gt;.&lt;/span&gt;&lt;span style=&quot;color:#0000c0;&quot;&gt;c)&lt;/span&gt;&lt;/p&gt;&lt;/div&gt;&lt;/div&gt;" style="text;whiteSpace=wrap;html=1;rotation=30;" parent="1" vertex="1">
          <mxGeometry x="1982" y="743.5" width="90" height="40" as="geometry" />
        </mxCell>
        <mxCell id="tPLSbW6VGkIm-RLQHWrn-18" value="&lt;div style=&quot;background-color:#ffffff;padding:0px 0px 0px 2px;&quot;&gt;&lt;div style=&quot;color: rgb(0, 0, 0); background-color: rgb(255, 255, 255); font-family: &amp;quot;Courier New&amp;quot;; font-size: 10pt;&quot;&gt;&lt;p style=&quot;background-color:#e8f2fe;margin:0;&quot;&gt;&lt;span style=&quot;color:#000000;&quot;&gt;&lt;/span&gt;&lt;span style=&quot;color:#6a3e3e;&quot;&gt;c&lt;/span&gt;&lt;span style=&quot;color:#000000;&quot;&gt;&amp;nbsp;&amp;gt;&amp;nbsp;&lt;/span&gt;&lt;span style=&quot;color:#6a3e3e;&quot;&gt;x&lt;/span&gt;&lt;span style=&quot;color:#000000;&quot;&gt;.&lt;/span&gt;&lt;span style=&quot;color:#0000c0;&quot;&gt;c&lt;/span&gt;&lt;/p&gt;&lt;/div&gt;&lt;/div&gt;" style="text;whiteSpace=wrap;html=1;rotation=-15;" parent="1" vertex="1">
          <mxGeometry x="2128" y="713.5" width="90" height="40" as="geometry" />
        </mxCell>
        <mxCell id="tPLSbW6VGkIm-RLQHWrn-19" value="" style="ellipse;whiteSpace=wrap;html=1;aspect=fixed;" parent="1" vertex="1">
          <mxGeometry x="2200" y="676.5" width="60" height="60" as="geometry" />
        </mxCell>
        <mxCell id="tPLSbW6VGkIm-RLQHWrn-20" value="" style="ellipse;whiteSpace=wrap;html=1;aspect=fixed;" parent="1" vertex="1">
          <mxGeometry x="2198" y="883.5" width="60" height="60" as="geometry" />
        </mxCell>
        <mxCell id="tPLSbW6VGkIm-RLQHWrn-21" value="" style="endArrow=classic;html=1;rounded=0;entryX=0;entryY=1;entryDx=0;entryDy=0;exitX=1;exitY=0;exitDx=0;exitDy=0;" parent="1" target="tPLSbW6VGkIm-RLQHWrn-19" edge="1">
          <mxGeometry width="50" height="50" relative="1" as="geometry">
            <mxPoint x="2121.2132034355964" y="782.2867965644036" as="sourcePoint" />
            <mxPoint x="2200" y="733.5" as="targetPoint" />
          </mxGeometry>
        </mxCell>
        <mxCell id="tPLSbW6VGkIm-RLQHWrn-22" value="" style="endArrow=classic;html=1;rounded=0;entryX=0;entryY=0;entryDx=0;entryDy=0;exitX=1;exitY=1;exitDx=0;exitDy=0;" parent="1" target="tPLSbW6VGkIm-RLQHWrn-20" edge="1">
          <mxGeometry width="50" height="50" relative="1" as="geometry">
            <mxPoint x="2121.2132034355964" y="824.7132034355964" as="sourcePoint" />
            <mxPoint x="2160" y="853.5" as="targetPoint" />
          </mxGeometry>
        </mxCell>
        <mxCell id="tPLSbW6VGkIm-RLQHWrn-23" value="&lt;div style=&quot;background-color:#ffffff;padding:0px 0px 0px 2px;&quot;&gt;&lt;div style=&quot;color: rgb(0, 0, 0); background-color: rgb(255, 255, 255); font-family: &amp;quot;Courier New&amp;quot;; font-size: 10pt;&quot;&gt;&lt;p style=&quot;background-color:#e8f2fe;margin:0;&quot;&gt;&lt;span style=&quot;color:#000000;&quot;&gt;&lt;/span&gt;¬(&lt;span style=&quot;color:#6a3e3e;&quot;&gt;c&lt;/span&gt;&lt;span style=&quot;color:#000000;&quot;&gt;&amp;nbsp;&amp;gt;&amp;nbsp;&lt;/span&gt;&lt;span style=&quot;color:#6a3e3e;&quot;&gt;x&lt;/span&gt;&lt;span style=&quot;color:#000000;&quot;&gt;.&lt;/span&gt;&lt;span style=&quot;color:#0000c0;&quot;&gt;c)&lt;/span&gt;&lt;/p&gt;&lt;/div&gt;&lt;/div&gt;" style="text;whiteSpace=wrap;html=1;rotation=30;" parent="1" vertex="1">
          <mxGeometry x="2110" y="853.5" width="90" height="40" as="geometry" />
        </mxCell>
        <mxCell id="tPLSbW6VGkIm-RLQHWrn-24" value="" style="ellipse;whiteSpace=wrap;html=1;aspect=fixed;" parent="1" vertex="1">
          <mxGeometry x="2198" y="883.5" width="60" height="60" as="geometry" />
        </mxCell>
        <mxCell id="tPLSbW6VGkIm-RLQHWrn-25" value="&lt;div style=&quot;background-color:#ffffff;padding:0px 0px 0px 2px;&quot;&gt;&lt;div style=&quot;color: rgb(0, 0, 0); background-color: rgb(255, 255, 255); font-family: &amp;quot;Courier New&amp;quot;; font-size: 10pt;&quot;&gt;&lt;p style=&quot;background-color:#e8f2fe;margin:0;&quot;&gt;&lt;span style=&quot;color:#000000;&quot;&gt;&lt;/span&gt;&lt;/p&gt;&lt;div style=&quot;padding: 0px 0px 0px 2px;&quot;&gt;&lt;div style=&quot;font-size: 10pt;&quot;&gt;&lt;p style=&quot;background-color:#e8f2fe;margin:0;&quot;&gt;d &amp;lt; &lt;span style=&quot;color:#6a3e3e;&quot;&gt;key&lt;/span&gt;.length() - 1&lt;/p&gt;&lt;/div&gt;&lt;/div&gt;&lt;/div&gt;&lt;/div&gt;" style="text;whiteSpace=wrap;html=1;rotation=-15;" parent="1" vertex="1">
          <mxGeometry x="2232" y="813.5" width="140" height="40" as="geometry" />
        </mxCell>
        <mxCell id="tPLSbW6VGkIm-RLQHWrn-26" value="" style="ellipse;whiteSpace=wrap;html=1;aspect=fixed;" parent="1" vertex="1">
          <mxGeometry x="2390.66" y="793.5" width="60" height="60" as="geometry" />
        </mxCell>
        <mxCell id="tPLSbW6VGkIm-RLQHWrn-27" value="" style="ellipse;whiteSpace=wrap;html=1;aspect=fixed;" parent="1" vertex="1">
          <mxGeometry x="2382" y="954.5" width="60" height="60" as="geometry" />
        </mxCell>
        <mxCell id="tPLSbW6VGkIm-RLQHWrn-28" value="" style="endArrow=classic;html=1;rounded=0;entryX=0;entryY=1;entryDx=0;entryDy=0;exitX=1;exitY=0;exitDx=0;exitDy=0;" parent="1" source="tPLSbW6VGkIm-RLQHWrn-24" target="tPLSbW6VGkIm-RLQHWrn-26" edge="1">
          <mxGeometry width="50" height="50" relative="1" as="geometry">
            <mxPoint x="2278" y="893.5" as="sourcePoint" />
            <mxPoint x="2328" y="843.5" as="targetPoint" />
          </mxGeometry>
        </mxCell>
        <mxCell id="tPLSbW6VGkIm-RLQHWrn-29" value="" style="endArrow=classic;html=1;rounded=0;entryX=0;entryY=0;entryDx=0;entryDy=0;exitX=1;exitY=1;exitDx=0;exitDy=0;" parent="1" source="tPLSbW6VGkIm-RLQHWrn-24" target="tPLSbW6VGkIm-RLQHWrn-27" edge="1">
          <mxGeometry width="50" height="50" relative="1" as="geometry">
            <mxPoint x="2249.2132034355964" y="905.7132034355964" as="sourcePoint" />
            <mxPoint x="2288" y="934.5" as="targetPoint" />
          </mxGeometry>
        </mxCell>
        <mxCell id="tPLSbW6VGkIm-RLQHWrn-30" value="&lt;div style=&quot;background-color:#ffffff;padding:0px 0px 0px 2px;&quot;&gt;&lt;div style=&quot;color: rgb(0, 0, 0); background-color: rgb(255, 255, 255); font-family: &amp;quot;Courier New&amp;quot;; font-size: 10pt;&quot;&gt;&lt;p style=&quot;background-color:#e8f2fe;margin:0;&quot;&gt;&lt;span style=&quot;color:#000000;&quot;&gt;&lt;/span&gt;&lt;/p&gt;&lt;div style=&quot;padding: 0px 0px 0px 2px;&quot;&gt;&lt;div style=&quot;font-size: 10pt;&quot;&gt;&lt;p style=&quot;background-color:#e8f2fe;margin:0;&quot;&gt;¬(d &amp;lt; &lt;span style=&quot;color:#6a3e3e;&quot;&gt;key&lt;/span&gt;.length() - 1)&lt;/p&gt;&lt;/div&gt;&lt;/div&gt;&lt;/div&gt;&lt;/div&gt;" style="text;whiteSpace=wrap;html=1;rotation=15;" parent="1" vertex="1">
          <mxGeometry x="2222" y="964.5" width="160" height="40" as="geometry" />
        </mxCell>
        <mxCell id="tPLSbW6VGkIm-RLQHWrn-31" value="&lt;div style=&quot;background-color:#ffffff;padding:0px 0px 0px 2px;&quot;&gt;&lt;div style=&quot;color: rgb(0, 0, 0); background-color: rgb(255, 255, 255); font-family: &amp;quot;Courier New&amp;quot;; font-size: 10pt;&quot;&gt;&lt;p style=&quot;background-color:#e8f2fe;margin:0;&quot;&gt;&lt;span style=&quot;color:#000000;&quot;&gt;&lt;/span&gt;&lt;span style=&quot;color:#6a3e3e;&quot;&gt;x&lt;/span&gt;&lt;span style=&quot;color:#000000;&quot;&gt;.&lt;/span&gt;&lt;span style=&quot;color:#0000c0;&quot;&gt;left&lt;/span&gt;&lt;span style=&quot;color:#000000;&quot;&gt;  = put(&lt;/span&gt;&lt;span style=&quot;color:#6a3e3e;&quot;&gt;x&lt;/span&gt;&lt;span style=&quot;color:#000000;&quot;&gt;.&lt;/span&gt;&lt;span style=&quot;color:#0000c0;&quot;&gt;left&lt;/span&gt;&lt;span style=&quot;color:#000000;&quot;&gt;,  &lt;/span&gt;&lt;span style=&quot;color:#6a3e3e;&quot;&gt;key&lt;/span&gt;&lt;span style=&quot;color:#000000;&quot;&gt;, &lt;/span&gt;&lt;span style=&quot;color:#6a3e3e;&quot;&gt;val&lt;/span&gt;&lt;span style=&quot;color:#000000;&quot;&gt;, &lt;/span&gt;&lt;span style=&quot;color:#6a3e3e;&quot;&gt;d&lt;/span&gt;&lt;span style=&quot;color:#000000;&quot;&gt;);&lt;/span&gt;&lt;/p&gt;&lt;/div&gt;&lt;/div&gt;" style="text;whiteSpace=wrap;html=1;" parent="1" vertex="1">
          <mxGeometry x="2102" y="593.5" width="170" height="40" as="geometry" />
        </mxCell>
        <mxCell id="tPLSbW6VGkIm-RLQHWrn-32" value="&lt;div style=&quot;background-color:#ffffff;padding:0px 0px 0px 2px;&quot;&gt;&lt;div style=&quot;color: rgb(0, 0, 0); background-color: rgb(255, 255, 255); font-family: &amp;quot;Courier New&amp;quot;; font-size: 10pt;&quot;&gt;&lt;p style=&quot;background-color:#e8f2fe;margin:0;&quot;&gt;&lt;span style=&quot;color:#000000;&quot;&gt;&lt;/span&gt;&lt;span style=&quot;color:#6a3e3e;&quot;&gt;x&lt;/span&gt;&lt;span style=&quot;color:#000000;&quot;&gt;.&lt;/span&gt;&lt;span style=&quot;color:#0000c0;&quot;&gt;right&lt;/span&gt;&lt;span style=&quot;color:#000000;&quot;&gt; = put(&lt;/span&gt;&lt;span style=&quot;color:#6a3e3e;&quot;&gt;x&lt;/span&gt;&lt;span style=&quot;color:#000000;&quot;&gt;.&lt;/span&gt;&lt;span style=&quot;color:#0000c0;&quot;&gt;right&lt;/span&gt;&lt;span style=&quot;color:#000000;&quot;&gt;, &lt;/span&gt;&lt;span style=&quot;color:#6a3e3e;&quot;&gt;key&lt;/span&gt;&lt;span style=&quot;color:#000000;&quot;&gt;, &lt;/span&gt;&lt;span style=&quot;color:#6a3e3e;&quot;&gt;val&lt;/span&gt;&lt;span style=&quot;color:#000000;&quot;&gt;, &lt;/span&gt;&lt;span style=&quot;color:#6a3e3e;&quot;&gt;d&lt;/span&gt;&lt;span style=&quot;color:#000000;&quot;&gt;);&lt;/span&gt;&lt;/p&gt;&lt;/div&gt;&lt;/div&gt;" style="text;whiteSpace=wrap;html=1;" parent="1" vertex="1">
          <mxGeometry x="2232" y="703.5" width="180" height="40" as="geometry" />
        </mxCell>
        <mxCell id="tPLSbW6VGkIm-RLQHWrn-33" value="&lt;div style=&quot;background-color:#ffffff;padding:0px 0px 0px 2px;&quot;&gt;&lt;div style=&quot;color: rgb(0, 0, 0); background-color: rgb(255, 255, 255); font-family: &amp;quot;Courier New&amp;quot;; font-size: 10pt;&quot;&gt;&lt;p style=&quot;background-color:#e8f2fe;margin:0;&quot;&gt;&lt;span style=&quot;color:#000000;&quot;&gt;&lt;/span&gt;&lt;span style=&quot;color:#6a3e3e;&quot;&gt;x&lt;/span&gt;&lt;span style=&quot;color:#000000;&quot;&gt;.&lt;/span&gt;&lt;span style=&quot;color:#0000c0;&quot;&gt;mid&lt;/span&gt;&lt;span style=&quot;color:#000000;&quot;&gt;   = put(&lt;/span&gt;&lt;span style=&quot;color:#6a3e3e;&quot;&gt;x&lt;/span&gt;&lt;span style=&quot;color:#000000;&quot;&gt;.&lt;/span&gt;&lt;span style=&quot;color:#0000c0;&quot;&gt;mid&lt;/span&gt;&lt;span style=&quot;color:#000000;&quot;&gt;,   &lt;/span&gt;&lt;span style=&quot;color:#6a3e3e;&quot;&gt;key&lt;/span&gt;&lt;span style=&quot;color:#000000;&quot;&gt;, &lt;/span&gt;&lt;span style=&quot;color:#6a3e3e;&quot;&gt;val&lt;/span&gt;&lt;span style=&quot;color:#000000;&quot;&gt;, &lt;/span&gt;&lt;span style=&quot;color:#6a3e3e;&quot;&gt;d&lt;/span&gt;&lt;span style=&quot;color:#000000;&quot;&gt;+1);&lt;/span&gt;&lt;/p&gt;&lt;/div&gt;&lt;/div&gt;" style="text;whiteSpace=wrap;html=1;" parent="1" vertex="1">
          <mxGeometry x="2422" y="833.5" width="170" height="40" as="geometry" />
        </mxCell>
        <mxCell id="tPLSbW6VGkIm-RLQHWrn-34" value="&lt;div style=&quot;background-color:#ffffff;padding:0px 0px 0px 2px;&quot;&gt;&lt;div style=&quot;color: rgb(0, 0, 0); background-color: rgb(255, 255, 255); font-family: &amp;quot;Courier New&amp;quot;; font-size: 10pt;&quot;&gt;&lt;p style=&quot;background-color:#e8f2fe;margin:0;&quot;&gt;&lt;span style=&quot;color:#000000;&quot;&gt;&lt;/span&gt;&lt;span style=&quot;color:#6a3e3e;&quot;&gt;x&lt;/span&gt;&lt;span style=&quot;color:#000000;&quot;&gt;.&lt;/span&gt;&lt;span style=&quot;color:#0000c0;&quot;&gt;val&lt;/span&gt;&lt;span style=&quot;color:#000000;&quot;&gt;   = &lt;/span&gt;&lt;span style=&quot;color:#6a3e3e;&quot;&gt;val&lt;/span&gt;&lt;span style=&quot;color:#000000;&quot;&gt;;&lt;/span&gt;&lt;/p&gt;&lt;/div&gt;&lt;/div&gt;" style="text;whiteSpace=wrap;html=1;" parent="1" vertex="1">
          <mxGeometry x="2412" y="989.5" width="130" height="40" as="geometry" />
        </mxCell>
        <mxCell id="tPLSbW6VGkIm-RLQHWrn-35" value="" style="ellipse;whiteSpace=wrap;html=1;aspect=fixed;strokeWidth=3;" parent="1" vertex="1">
          <mxGeometry x="2722" y="703.5" width="60" height="60" as="geometry" />
        </mxCell>
        <mxCell id="tPLSbW6VGkIm-RLQHWrn-36" value="" style="endArrow=classic;html=1;rounded=0;exitX=1;exitY=0.5;exitDx=0;exitDy=0;entryX=0.5;entryY=1;entryDx=0;entryDy=0;" parent="1" source="tPLSbW6VGkIm-RLQHWrn-27" target="tPLSbW6VGkIm-RLQHWrn-35" edge="1">
          <mxGeometry width="50" height="50" relative="1" as="geometry">
            <mxPoint x="2532" y="973.5" as="sourcePoint" />
            <mxPoint x="2582" y="923.5" as="targetPoint" />
          </mxGeometry>
        </mxCell>
        <mxCell id="tPLSbW6VGkIm-RLQHWrn-37" value="" style="endArrow=classic;html=1;rounded=0;exitX=0.967;exitY=0.25;exitDx=0;exitDy=0;exitPerimeter=0;entryX=0.017;entryY=0.717;entryDx=0;entryDy=0;entryPerimeter=0;" parent="1" source="tPLSbW6VGkIm-RLQHWrn-26" target="tPLSbW6VGkIm-RLQHWrn-35" edge="1">
          <mxGeometry width="50" height="50" relative="1" as="geometry">
            <mxPoint x="2512" y="753.5" as="sourcePoint" />
            <mxPoint x="2562" y="703.5" as="targetPoint" />
          </mxGeometry>
        </mxCell>
        <mxCell id="tPLSbW6VGkIm-RLQHWrn-38" value="" style="endArrow=classic;html=1;rounded=0;exitX=0.122;exitY=-0.225;exitDx=0;exitDy=0;entryX=-0.067;entryY=0.367;entryDx=0;entryDy=0;entryPerimeter=0;exitPerimeter=0;" parent="1" source="tPLSbW6VGkIm-RLQHWrn-32" target="tPLSbW6VGkIm-RLQHWrn-35" edge="1">
          <mxGeometry width="50" height="50" relative="1" as="geometry">
            <mxPoint x="2342" y="673.5" as="sourcePoint" />
            <mxPoint x="2392" y="623.5" as="targetPoint" />
          </mxGeometry>
        </mxCell>
        <mxCell id="tPLSbW6VGkIm-RLQHWrn-39" value="" style="endArrow=classic;html=1;rounded=0;exitX=1;exitY=0;exitDx=0;exitDy=0;entryX=0;entryY=0;entryDx=0;entryDy=0;" parent="1" source="tPLSbW6VGkIm-RLQHWrn-13" target="tPLSbW6VGkIm-RLQHWrn-35" edge="1">
          <mxGeometry width="50" height="50" relative="1" as="geometry">
            <mxPoint x="2362" y="663.5" as="sourcePoint" />
            <mxPoint x="2412" y="613.5" as="targetPoint" />
          </mxGeometry>
        </mxCell>
        <mxCell id="tPLSbW6VGkIm-RLQHWrn-40" value="&lt;div style=&quot;background-color:#ffffff;padding:0px 0px 0px 2px;&quot;&gt;&lt;div style=&quot;color: rgb(0, 0, 0); background-color: rgb(255, 255, 255); font-family: &amp;quot;Courier New&amp;quot;; font-size: 10pt;&quot;&gt;&lt;p style=&quot;background-color:#e8f2fe;margin:0;&quot;&gt;&lt;span style=&quot;color:#000000;&quot;&gt;   &lt;/span&gt;&lt;span style=&quot;color:#7f0055;font-weight:bold;&quot;&gt;return&lt;/span&gt;&lt;span style=&quot;color:#000000;&quot;&gt; &lt;/span&gt;&lt;span style=&quot;color:#6a3e3e;&quot;&gt;x&lt;/span&gt;&lt;span style=&quot;color:#000000;&quot;&gt;;&lt;/span&gt;&lt;/p&gt;&lt;/div&gt;&lt;/div&gt;" style="text;whiteSpace=wrap;html=1;" parent="1" vertex="1">
          <mxGeometry x="2743" y="713.5" width="110" height="40" as="geometry" />
        </mxCell>
        <mxCell id="tPLSbW6VGkIm-RLQHWrn-41" value="" style="ellipse;whiteSpace=wrap;html=1;aspect=fixed;" parent="1" vertex="1">
          <mxGeometry x="540" y="420" width="60" height="60" as="geometry" />
        </mxCell>
        <mxCell id="tPLSbW6VGkIm-RLQHWrn-42" value="" style="endArrow=classic;html=1;rounded=0;entryX=0;entryY=0.5;entryDx=0;entryDy=0;" parent="1" edge="1">
          <mxGeometry width="50" height="50" relative="1" as="geometry">
            <mxPoint x="486" y="449.67" as="sourcePoint" />
            <mxPoint x="546" y="449.67" as="targetPoint" />
          </mxGeometry>
        </mxCell>
        <mxCell id="bVzl48XAN6Z6IAqM6yS6-27" value="&lt;div style=&quot;background-color:#ffffff;padding:0px 0px 0px 2px;&quot;&gt;&lt;div style=&quot;color: rgb(0, 0, 0); background-color: rgb(255, 255, 255); font-family: &amp;quot;Courier New&amp;quot;; font-size: 10pt;&quot;&gt;&lt;p style=&quot;background-color:#e8f2fe;margin:0;&quot;&gt;&lt;span style=&quot;color:#000000;&quot;&gt;&lt;/span&gt;&lt;span style=&quot;color:#7f0055;font-weight:bold;&quot;&gt;char&lt;/span&gt;&lt;span style=&quot;color:#000000;&quot;&gt; &lt;/span&gt;&lt;span style=&quot;color:#6a3e3e;&quot;&gt;c&lt;/span&gt;&lt;span style=&quot;color:#000000;&quot;&gt; = &lt;/span&gt;&lt;span style=&quot;color:#6a3e3e;&quot;&gt;key&lt;/span&gt;&lt;span style=&quot;color:#000000;&quot;&gt;.charAt(&lt;/span&gt;&lt;span style=&quot;color:#6a3e3e;&quot;&gt;&lt;u&gt;&lt;b&gt;d&lt;/b&gt;&lt;/u&gt;&lt;/span&gt;&lt;span style=&quot;color:#000000;&quot;&gt;);&lt;/span&gt;&lt;/p&gt;&lt;/div&gt;&lt;/div&gt;" style="text;whiteSpace=wrap;html=1;" parent="1" vertex="1">
          <mxGeometry x="520" y="390" width="115" height="40" as="geometry" />
        </mxCell>
        <mxCell id="26J4nd8EzU1LlqAiexB--1" value="" style="curved=1;endArrow=classic;html=1;rounded=0;strokeColor=#009900;strokeWidth=5;" edge="1" parent="1">
          <mxGeometry width="50" height="50" relative="1" as="geometry">
            <mxPoint x="960" y="430" as="sourcePoint" />
            <mxPoint x="1820" y="560" as="targetPoint" />
            <Array as="points">
              <mxPoint x="1520" y="280" />
            </Array>
          </mxGeometry>
        </mxCell>
        <mxCell id="26J4nd8EzU1LlqAiexB--2" value="" style="curved=1;endArrow=classic;html=1;rounded=0;strokeColor=#009900;strokeWidth=5;exitX=0.111;exitY=-0.25;exitDx=0;exitDy=0;exitPerimeter=0;" edge="1" parent="1" source="bVzl48XAN6Z6IAqM6yS6-60">
          <mxGeometry width="50" height="50" relative="1" as="geometry">
            <mxPoint x="970" y="440" as="sourcePoint" />
            <mxPoint x="1820" y="560" as="targetPoint" />
            <Array as="points">
              <mxPoint x="1530" y="290" />
            </Array>
          </mxGeometry>
        </mxCell>
        <mxCell id="26J4nd8EzU1LlqAiexB--3" value="" style="curved=1;endArrow=classic;html=1;rounded=0;strokeColor=#009900;strokeWidth=5;" edge="1" parent="1" target="tPLSbW6VGkIm-RLQHWrn-1">
          <mxGeometry width="50" height="50" relative="1" as="geometry">
            <mxPoint x="1280" y="680" as="sourcePoint" />
            <mxPoint x="1810" y="548" as="targetPoint" />
            <Array as="points">
              <mxPoint x="1540" y="300" />
            </Array>
          </mxGeometry>
        </mxCell>
        <mxCell id="26J4nd8EzU1LlqAiexB--4" value="" style="curved=1;endArrow=classic;html=1;rounded=0;strokeColor=#FFB570;strokeWidth=5;exitX=0.25;exitY=1;exitDx=0;exitDy=0;entryX=0.5;entryY=1;entryDx=0;entryDy=0;" edge="1" parent="1" source="tPLSbW6VGkIm-RLQHWrn-40" target="bVzl48XAN6Z6IAqM6yS6-53">
          <mxGeometry width="50" height="50" relative="1" as="geometry">
            <mxPoint x="1654" y="1233.5" as="sourcePoint" />
            <mxPoint x="1510" y="880" as="targetPoint" />
            <Array as="points">
              <mxPoint x="2760" y="880" />
              <mxPoint x="2460" y="1090" />
              <mxPoint x="1410" y="930" />
            </Array>
          </mxGeometry>
        </mxCell>
        <mxCell id="26J4nd8EzU1LlqAiexB--6" value="" style="curved=1;endArrow=classic;html=1;rounded=0;strokeColor=#FFB570;strokeWidth=5;exitX=0.25;exitY=1;exitDx=0;exitDy=0;entryX=1;entryY=0.5;entryDx=0;entryDy=0;" edge="1" parent="1" source="tPLSbW6VGkIm-RLQHWrn-40" target="bVzl48XAN6Z6IAqM6yS6-45">
          <mxGeometry width="50" height="50" relative="1" as="geometry">
            <mxPoint x="2786" y="764" as="sourcePoint" />
            <mxPoint x="1290" y="730" as="targetPoint" />
            <Array as="points">
              <mxPoint x="2770" y="890" />
              <mxPoint x="2470" y="1100" />
              <mxPoint x="1400" y="1010" />
            </Array>
          </mxGeometry>
        </mxCell>
        <mxCell id="26J4nd8EzU1LlqAiexB--7" value="" style="curved=1;endArrow=classic;html=1;rounded=0;strokeColor=#FFB570;strokeWidth=5;exitX=0.25;exitY=1;exitDx=0;exitDy=0;entryX=1;entryY=0;entryDx=0;entryDy=0;" edge="1" parent="1" source="tPLSbW6VGkIm-RLQHWrn-40" target="bVzl48XAN6Z6IAqM6yS6-37">
          <mxGeometry width="50" height="50" relative="1" as="geometry">
            <mxPoint x="2796" y="774" as="sourcePoint" />
            <mxPoint x="1300" y="740" as="targetPoint" />
            <Array as="points">
              <mxPoint x="2780" y="900" />
              <mxPoint x="2480" y="1110" />
              <mxPoint x="1370" y="1070" />
            </Array>
          </mxGeometry>
        </mxCell>
      </root>
    </mxGraphModel>
  </diagram>
</mxfile>
